# xmcd
#
# Track frame offsets:
#	150
#	25569
#	70677
#	87454
#	124186
#	140301
#	159171
#	195339
#
# Disc length: 3588 seconds
# Revision: 0
# Processed by: cddbd v1.5.2PL0 Copyright (c) Steve Scherf et al.
# Submitted via: dBpowerAMP V12.0
#
DISCID=5a0e0208
DTITLE=Little Milton - Live at Westville Prison
DYEAR=1900
DGENRE=R&B
TTITLE0=I'd Rather Drink Muddy Water
TTITLE1=Eigth Men, Four Women
TTITLE2=Friend of Mine
TTITLE3=Medley
TTITLE4=Bad Luck
TTITLE5=You're the One
TTITLE6=Loving You (Is the Best Thing That Happened to Me)
TTITLE7=That's How Strong My Love Is
EXTD=
EXTT0=
EXTT1=
EXTT2=
EXTT3=
EXTT4=
EXTT5=
EXTT6=
EXTT7=
PLAYORDER=
